<svg xmlns="http://www.w3.org/2000/svg" xmlns:xlink="http://www.w3.org/1999/xlink" viewBox="0 0 64 65" fill="#fff" fill-rule="evenodd" stroke="#000" stroke-linecap="round" stroke-linejoin="round"><use xlink:href="#A" x=".5" y=".5"/><symbol id="A" overflow="visible"><path fill="#ea4335" d="M3.276 17.821C8.481 7.239 19.354 0 32 0c8.146 0 15.418 3.055 21.091 8l-9.309 9.309c-3.2-2.618-7.273-4.218-11.782-4.218-8.393 0-15.478 5.418-17.961 12.96" stroke="none"/><g stroke="none"><path fill="#fbbc05" d="M3.276 17.821C1.177 22.089 0 26.9 0 32s1.177 9.911 3.276 14.179l10.763-8.23A18.99 18.99 0 0 1 13.091 32a18.99 18.99 0 0 1 .948-5.949m0 0l-10.763-8.23z"/><path fill="#4285f4" d="M52.857 56.03L42.64 48.12c3.341-2.108 5.665-5.36 6.524-9.574H32V26.182h29.818c.436 1.891.727 3.927.727 5.818 0 10.43-3.816 18.57-9.688 24.03z"/><path fill="#34a853" d="M52.857 56.03C47.264 61.231 39.805 64 32 64 19.351 64 8.475 56.757 3.272 46.17l10.758-8.248c2.475 7.556 9.567 12.987 17.97 12.987 4.112 0 7.755-.968 10.64-2.789z"/></g></symbol></svg>